<svg width="24" height="20" viewBox="0 0 24 20" fill="none" xmlns="http://www.w3.org/2000/svg">
<path d="M16 19.1428V17.1428C16 16.082 15.5786 15.0645 14.8284 14.3144C14.0783 13.5643 13.0609 13.1428 12 13.1428H5C3.93913 13.1428 2.92172 13.5643 2.17157 14.3144C1.42143 15.0645 1 16.082 1 17.1428V19.1428M17 9.14282L19 11.1428L23 7.14282M12.5 5.14282C12.5 7.35196 10.7091 9.14282 8.5 9.14282C6.29086 9.14282 4.5 7.35196 4.5 5.14282C4.5 2.93368 6.29086 1.14282 8.5 1.14282C10.7091 1.14282 12.5 2.93368 12.5 5.14282Z" stroke="#999999" stroke-linecap="round" stroke-linejoin="round"/>
</svg>
