<svg width="34" height="34" viewBox="0 0 34 34" fill="none" xmlns="http://www.w3.org/2000/svg">
<path d="M21.6042 24.4375H24.4375V21.3754C24.4373 21.0858 24.2609 20.8255 23.992 20.7181L21.3414 19.6556C21.0729 19.5483 20.8966 19.2887 20.8958 18.9997V18.3777C21.7702 17.876 22.3103 16.9457 22.3125 15.9375V14.5209C22.3127 13.5085 21.7728 12.5729 20.8961 12.0666C20.0194 11.5604 18.9392 11.5603 18.0625 12.0665" stroke="currentColor" stroke-linecap="round" stroke-linejoin="round"/>
<path fill-rule="evenodd" clip-rule="evenodd" d="M18.3253 21.4264L15.6747 20.3639C15.4063 20.2567 15.2299 19.9971 15.2292 19.708V19.0861C16.1036 18.5843 16.6437 17.654 16.6459 16.6459V15.2292C16.6459 13.6644 15.3773 12.3959 13.8125 12.3959C12.2477 12.3959 10.9792 13.6644 10.9792 15.2292V16.6459C10.9814 17.654 11.5215 18.5843 12.3959 19.0861V19.708C12.3957 19.9976 12.2192 20.2579 11.9503 20.3653L9.29973 21.4278C9.03129 21.5351 8.85495 21.7947 8.85419 22.0837V24.4375H18.7709V22.0837C18.7707 21.7942 18.5942 21.5339 18.3253 21.4264Z" stroke="currentColor" stroke-linecap="round" stroke-linejoin="round"/>
</svg>
