<svg width="34" height="34" viewBox="0 0 34 34" fill="none" xmlns="http://www.w3.org/2000/svg">
<path fill-rule="evenodd" clip-rule="evenodd" d="M25.1458 17.3542C25.1458 16.5715 24.5119 15.9375 23.7292 15.9375H22.8352C22.7014 15.419 22.4974 14.9302 22.2317 14.4797L22.8636 13.8479C23.4168 13.2947 23.4168 12.398 22.8636 11.8447C22.3104 11.2915 21.4136 11.2915 20.8604 11.8447L20.2286 12.4766C19.7781 12.211 19.2893 12.007 18.7708 11.8731V10.9792C18.7708 10.1972 18.1369 9.5625 17.3542 9.5625C16.5715 9.5625 15.9375 10.1965 15.9375 10.9792V11.8731C15.419 12.007 14.9302 12.211 14.4797 12.4766L13.8479 11.8447C13.2947 11.2915 12.398 11.2915 11.8447 11.8447C11.2915 12.398 11.2915 13.2947 11.8447 13.8479L12.4766 14.4797C12.211 14.9302 12.007 15.419 11.8731 15.9375H10.9792C10.1972 15.9375 9.5625 16.5715 9.5625 17.3542C9.5625 18.1369 10.1965 18.7708 10.9792 18.7708H11.8731C12.007 19.2893 12.211 19.7781 12.4766 20.2286L11.8447 20.8604C11.2915 21.4136 11.2915 22.3104 11.8447 22.8636C12.398 23.4168 13.2947 23.4168 13.8479 22.8636L14.4797 22.2317C14.9295 22.4974 15.419 22.7014 15.9375 22.8352V23.7292C15.9375 24.5112 16.5715 25.1458 17.3542 25.1458C18.1369 25.1458 18.7708 24.5119 18.7708 23.7292V22.8352C19.2893 22.7014 19.7781 22.4974 20.2286 22.2317L20.8604 22.8636C21.4136 23.4168 22.3104 23.4168 22.8636 22.8636C23.4168 22.3104 23.4168 21.4136 22.8636 20.8604L22.2317 20.2286C22.4974 19.7788 22.7014 19.2893 22.8352 18.7708H23.7292C24.5112 18.7708 25.1458 18.1369 25.1458 17.3542Z" stroke="currentColor" stroke-linecap="round" stroke-linejoin="round"/>
<circle cx="17.3542" cy="17.3542" r="2.125" stroke="currentColor" stroke-linecap="round" stroke-linejoin="round"/>
</svg>
