<svg width="34" height="34" viewBox="0 0 34 34" fill="none" xmlns="http://www.w3.org/2000/svg">
<path d="M10.9792 18.7709V25.1459H22.3125V18.7709" stroke="currentColor" stroke-linecap="square"/>
<path fill-rule="evenodd" clip-rule="evenodd" d="M10.9792 10.9792L8.85419 14.5209C8.85199 15.5043 9.52663 16.3601 10.4834 16.5875C11.4402 16.8149 12.4278 16.3542 12.8683 15.475C13.2244 16.1923 13.9562 16.646 14.7571 16.646C15.558 16.646 16.2897 16.1923 16.6459 15.475C17.002 16.1923 17.7337 16.646 18.5346 16.646C19.3355 16.646 20.0673 16.1923 20.4234 15.475C20.864 16.3542 21.8515 16.8149 22.8083 16.5875C23.7651 16.3601 24.4397 15.5043 24.4375 14.5209L22.3125 10.9792H10.9792Z" stroke="currentColor" stroke-linecap="square"/>
<path d="M15.2292 25.1459V20.8959H18.0625V25.1459" stroke="currentColor"/>
</svg>
