<svg width="34" height="34" viewBox="0 0 34 34" fill="none" xmlns="http://www.w3.org/2000/svg">
<path fill-rule="evenodd" clip-rule="evenodd" d="M19.4791 16.6458V16.6458C17.9144 16.6458 16.6458 15.3772 16.6458 13.8125V12.3958C16.6458 10.8311 17.9144 9.5625 19.4791 9.5625V9.5625C21.0439 9.5625 22.3125 10.8311 22.3125 12.3958V13.8125C22.3125 15.3772 21.0439 16.6458 19.4791 16.6458Z" stroke="currentColor" stroke-linecap="round" stroke-linejoin="round"/>
<path d="M11.6875 13.8125V18.0625" stroke="currentColor" stroke-linecap="round" stroke-linejoin="round"/>
<path d="M9.5625 15.9375H13.8125" stroke="currentColor" stroke-linecap="round" stroke-linejoin="round"/>
<path fill-rule="evenodd" clip-rule="evenodd" d="M25.1458 25.1458H13.8125V22.2318C13.8125 21.3485 14.3544 20.558 15.1803 20.2449C16.1627 19.8723 17.6368 19.4792 19.4792 19.4792C21.3215 19.4792 22.7956 19.8723 23.778 20.2449C24.604 20.5573 25.1458 21.3485 25.1458 22.2318V25.1458Z" stroke="currentColor" stroke-linecap="round" stroke-linejoin="round"/>
</svg>
